<?xml version="1.0" encoding="UTF-8"?>
<svg id="_Слой_1" data-name="Слой_1" xmlns="http://www.w3.org/2000/svg" version="1.1" viewBox="0 0 980 1080">
  <!-- Generator: Adobe Illustrator 29.8.2, SVG Export Plug-In . SVG Version: 2.1.1 Build 3)  -->
  <defs>
    <style>
      .st0 {
        fill: #ff8730;
      }

      .st1 {
        fill: #2b1878;
      }

      .st2 {
        fill: none;
      }
    </style>
  </defs>
  <rect class="st2" width="980" height="1080"/>
  <g>
    <path class="st1" d="M740,780c0,33.14-26.86,60-60,60-29.1,0-53.36-20.72-58.84-48.22-9.68-48.54-33.64-91.94-67.32-125.62s-77.08-57.64-125.62-67.32c-27.5-5.48-48.22-29.74-48.22-58.84s20.72-53.36,48.22-58.84c48.54-9.68,91.94-33.64,125.62-67.32,33.68-33.68,57.64-77.08,67.32-125.62,5.48-27.5,29.74-48.22,58.84-48.22,33.14,0,60,26.86,60,60,0,29.1-20.72,53.36-48.22,58.84-48.54,9.68-91.94,33.64-125.62,67.32-30.94,30.92-53.68,70.06-64.66,113.84,10.98,43.78,33.72,82.92,64.66,113.84,33.68,33.68,77.08,57.64,125.62,67.32,27.5,5.48,48.22,29.74,48.22,58.84ZM308.42,540c0-61.38,14.86-122.78,44.58-178.6,4.46-8.4,7-17.98,7-28.16,0-33.14-26.86-60-60-60s-60,26.86-60,60c0,10.18,2.54,19.76,7,28.16,29.72,55.82,44.58,117.22,44.58,178.6s-14.86,122.78-44.58,178.6c-4.46,8.4-7,17.98-7,28.16,0,33.14,26.86,60,60,60s60-26.86,60-60c0-10.18-2.54-19.76-7-28.16-29.72-55.82-44.58-117.22-44.58-178.6Z"/>
    <circle class="st0" cx="440" cy="540" r="43"/>
  </g>
</svg>