<?xml version="1.0" encoding="utf-8"?>
<!-- Generator: Adobe Illustrator 26.1.0, SVG Export Plug-In . SVG Version: 6.00 Build 0)  -->
<svg version="1.1" id="_Слой_1" xmlns="http://www.w3.org/2000/svg" xmlns:xlink="http://www.w3.org/1999/xlink" x="0px"
	 y="0px" viewBox="0 0 900.3 1080" style="enable-background:new 0 0 900.3 1080;" xml:space="preserve">
<style type="text/css">
	.st0{fill:none;}
	.st1{fill:#FFFFFF;}
	.st2{fill:#FF8730;}
</style>
<rect y="0" class="st0" width="900.3" height="1080"/>
<g>
	<path class="st1" d="M900.2,971.6c0,59.6-48.5,108.1-108.1,108.1c-52.4,0-96.1-37.3-105.9-86.7c-17.5-87.3-60.5-165.5-121.2-226.2
		S426.3,663.1,339,645.7c-49.5-9.9-86.7-53.4-86.7-105.9c0-52.4,37.3-96.1,86.7-105.9c87.3-17.5,165.5-60.5,226.2-121.2
		s103.8-139,121.3-226.3C696.3,37,739.8-0.3,792.3-0.3c59.6,0,108.1,48.5,108.1,108.1c0,52.4-37.3,96.1-86.7,105.9
		c-87.3,17.5-165.5,60.5-226.2,121.2c-55.6,55.6-96.6,126.2-116.5,204.9c19.8,78.8,60.7,149.3,116.5,204.9
		c60.6,60.5,138.6,103.6,226,121.1C863,875.4,900.2,919.2,900.2,971.6z M123.1,539.5c0-110.5,26.8-221.1,80.3-321.6
		c8.1-15.2,12.6-32.4,12.6-50.8C216,107.5,167.6,59,108,59S0,107.6,0,167.2c0,18.4,4.5,35.6,12.6,50.8
		c53.4,100.5,80.3,211,80.3,321.6S66.1,760.7,12.6,861.2C4.5,876.3,0,893.6,0,911.9C0,971.5,48.5,1020,108.1,1020
		s108.1-48.5,108.1-108.1c0-18.4-4.5-35.6-12.6-50.8C150,760.6,123.1,650.1,123.1,539.5L123.1,539.5z"/>
	<circle class="st2" cx="360.1" cy="539.5" r="77.4"/>
</g>
</svg>
