<?xml version="1.0" encoding="UTF-8"?>
<svg xmlns="http://www.w3.org/2000/svg" viewBox="0 0 1231.6 369.48">
  <defs>
    <style>
      .cls-1 {
        fill: #1a1247;
      }

      .cls-2 {
        fill: #ff8730;
      }
    </style>
  </defs>
  <g id="_лой_1" data-name="Слой 1"/>
  <g id="_лой_2" data-name="Слой 2">
    <g id="Logo_design" data-name="Logo design">
      <g>
        <path class="cls-1" d="M1083.09,122.27v124.95h-24.81V122.27h24.81Zm148.51,0v124.95h-23.92l-63.19-86.04v86.04h-24.45V122.27h24.1l63.01,85.86V122.27h24.45ZM421.78,247.21l-52.12-61.76v61.76h-24.81V122.27h24.81v55.87l49.62-55.87h30.7l-53.73,58.01,57.48,66.94h-31.95Zm115.64-124.95h-25.53l-50.87,124.95h25.88l10.82-28.38h52.95l10.66,28.38h26.77l-50.69-124.95Zm-32.01,76.4l18.98-49.8,18.71,49.8h-37.69Zm331.71-76.4h-25.53l-50.87,124.95h25.88l10.82-28.38h52.95l10.66,28.38h26.77l-50.69-124.95Zm-32.01,76.4l18.98-49.8,18.71,49.8h-37.69Zm-195.04,48.55h24.45v-86.39l39.98,54.78,39.81-54.78v86.39h24.45V122.27h-23.56l-40.34,55.51-40.52-55.51h-24.28v124.95Zm411.26-124.95v124.95h-23.92l-63.19-86.04v86.04h-24.45V122.27h24.1l63.01,85.86V122.27h24.45Z"/>
        <path class="cls-1" d="M307.9,332.53c0,20.41-16.54,36.95-36.95,36.95-17.92,0-32.86-12.76-36.23-29.69-5.96-29.89-20.72-56.62-41.46-77.36-20.74-20.74-47.47-35.49-77.36-41.46-16.93-3.37-29.69-18.31-29.69-36.23s12.76-32.86,29.69-36.23c29.89-5.96,56.62-20.72,77.36-41.46,20.74-20.74,35.49-47.47,41.46-77.36,3.37-16.93,18.31-29.69,36.23-29.69,20.41,0,36.95,16.54,36.95,36.95,0,17.92-12.76,32.86-29.69,36.23-29.89,5.96-56.62,20.72-77.36,41.46-19.05,19.04-33.06,43.14-39.82,70.1,6.76,26.96,20.76,51.06,39.82,70.1,20.74,20.74,47.47,35.49,77.36,41.46,16.93,3.37,29.69,18.31,29.69,36.23Z"/>
        <path class="cls-1" d="M42.13,184.74c0-37.8,9.15-75.61,27.45-109.98,2.75-5.17,4.31-11.07,4.31-17.34,0-20.41-16.54-36.95-36.95-36.95S0,37.01,0,57.42c0,6.27,1.56,12.17,4.31,17.34,18.3,34.37,27.45,72.18,27.45,109.98s-9.15,75.61-27.45,109.98c-2.75,5.17-4.31,11.07-4.31,17.34,0,20.41,16.54,36.95,36.95,36.95s36.95-16.54,36.95-36.95c0-6.27-1.56-12.17-4.31-17.34-18.3-34.37-27.45-72.18-27.45-109.98Z"/>
        <circle class="cls-2" cx="123.16" cy="184.74" r="26.48"/>
      </g>
    </g>
  </g>
</svg>
